# xmcd CD database file
#
# Track frame offsets:
#	150
#	14480
#	29205
#	37470
#	52312
#	62545
#	71745
#	82905
#	94115
#	108065
#	119287
#	131612
#
# Disc length: 1906 seconds
#
# Revision: 0
# Processed by: cddbd v1.4PL0 Copyright (c) Steve Scherf et al.
# Submitted via: CDex 1.40Beta9
#
DISCID=ad07700c
DTITLE=Eddy Arnold - 36 All-Time Greatest Hits, Disc Three
DYEAR=1900
DGENRE=Country
TTITLE0=Your Cheatin' Heart
TTITLE1=Will The Circle Go Unbroken
TTITLE2=Georgia On My Mind
TTITLE3=Crying In The Chapel
TTITLE4=Don't Fence Me In
TTITLE5=Green, Green
TTITLE6=Cotton Fields
TTITLE7=Sixteen Tons
TTITLE8=Tennessee Stud
TTITLE9=Tennessee Waltz
TTITLE10=Cold, Cold Heart
TTITLE11=Gotta Travel On
EXTD=ID3G: 2
EXTT0=
EXTT1=
EXTT2=
EXTT3=
EXTT4=
EXTT5=
EXTT6=
EXTT7=
EXTT8=
EXTT9=
EXTT10=
EXTT11=
PLAYORDER=
